<mxfile host="app.diagrams.net" modified="2023-04-24T17:39:44.683Z" agent="Mozilla/5.0 (Windows NT 10.0; Win64; x64) AppleWebKit/537.36 (KHTML, like Gecko) Chrome/112.0.0.0 Safari/537.36" version="21.2.1" etag="5-iLKi9k4s6NNL08vEo6" type="github">
  <diagram name="Page-1" id="Ps_6VQVVXAptRKzg8QJA">
    <mxGraphModel>
      <root>
        <mxCell id="0" />
        <mxCell id="1" parent="0" />
      </root>
    </mxGraphModel>
  </diagram>
</mxfile>
